<?xml version="1.0" encoding="utf-8"?>
<!-- Generator: Adobe Illustrator 24.0.0, SVG Export Plug-In . SVG Version: 6.00 Build 0)  -->
<svg version="1.1" id="Layer_1" xmlns="http://www.w3.org/2000/svg" xmlns:xlink="http://www.w3.org/1999/xlink" x="0px" y="0px"
	 viewBox="0 0 960 560" style="enable-background:new 0 0 960 560;" xml:space="preserve">
<style type="text/css">
	.st0{stroke:#000000;stroke-width:5;stroke-miterlimit:10;}
	.st1{stroke:#000000;stroke-width:7;stroke-miterlimit:10;}
	.st2{fill:#FFFFFF;stroke:#0000FF;stroke-width:10;stroke-miterlimit:10;}
	.st3{fill:none;stroke:#000000;stroke-width:9;stroke-miterlimit:10;}
	.st4{fill:none;}
</style>
<polygon class="st0" points="635.84,416.97 635.84,343.63 619.31,342.03 619.31,416.86 602.58,416.74 602.58,340.39 586.07,338.79 
	586.07,416.63 570.03,416.54 570.03,337.23 553.52,335.61 553.52,416.42 536.55,415.75 536.55,333.47 520.02,331.81 520.02,415.09 
	504.02,416.09 484.77,415.96 483.34,415.94 483.34,266.61 684.91,303.4 684.91,416.66 750.47,417.74 "/>
<path class="st1" d="M483.34,417.55v1.43l-48.2-0.11v-52.36c0-8.68-6.13-15.7-13.69-15.7h-30.29c-7.58,0-13.71,7.01-13.71,15.7v52.2
	l-37.8-0.1V302.45l131.37-33.66v148.68L483.34,417.55z"/>
<path class="st2" d="M838.04,314.07c0,52.07-37.88,95.31-87.57,103.67l-65.57-1.08V303.4l-201.56-36.79v-8.35h-12.31v8.92
	l-131.37,33.66V417l-32.42-0.08h-0.11l-39.66-0.11h-0.05c-67.94-9.82-120.14-68.31-120.14-138.97
	c0-77.56,62.89-140.44,140.44-140.44c15.36,0,44.28,7.14,44.28,7.14c0.09-0.77,0.18-1.53,0.27-2.3
	C349.1,78.75,405.8,34.69,468.55,34.68c55.6-0.01,106.91,34.56,129.53,87.57c5.34-0.61,10.79-0.9,16.31-0.9
	c60.53,0,112.45,36.61,134.54,88.79c-0.3-0.05-0.27,0.03,0.06,0.13c-0.03-0.03-0.05-0.08-0.06-0.13
	c29.23,4.46,54.51,20.98,70.59,44.32c0.02,0.02,0.02,0.02,0.03,0.03C831.22,271.42,838.04,291.95,838.04,314.07z"/>
<path class="st3" d="M679.57,417.82c-0.53,0.09-1.05,0.17-1.58,0.26l-23.09-0.06l-170.96-0.47l-0.6-0.01l0.62-0.04l0.42-1.05
	l-0.45,1.1l0.02-0.05l14.56-0.95l12.49,0.09l12.14,0.09l11.73,0.09l12.13,0.09v0.54h-12.13v-0.63l12.13,0.09l11.78,0.07l12.13,0.09
	v0.38H558.8v-0.47l12.13,0.09l12.29,0.09l12.14,0.09v0.21h-12.14v-0.3l-12.29-0.17l-12.13-0.17l-11.78-0.16l-12.13-0.17l-12.46-0.17
	l-12.14-0.51v0.66h12.14v-0.15L679.57,417.82z"/>
<g>
	<path d="M197.65,498.67l0.76-9.82l0.56-12.27l0.37-12.22c0.02-0.53,0.03-1.93,0.03-4.2c2.09,0.04,4.05,0.06,5.9,0.06
		c1.37,0,3.18-0.03,5.43-0.08c2.25-0.06,4.19-0.08,5.83-0.08c2.22,0,4.27,0.13,6.17,0.4c1.89,0.26,3.54,0.76,4.95,1.48
		c1.41,0.72,2.63,1.63,3.67,2.72c1.03,1.09,1.88,2.3,2.54,3.63c0.66,1.33,1.16,2.8,1.51,4.43c0.35,1.63,0.52,3.29,0.52,4.98
		c0,3.24-0.56,6.32-1.68,9.24c-1.12,2.92-2.79,5.34-5.01,7.25s-4.68,3.14-7.38,3.68c-2.7,0.55-5.76,0.82-9.18,0.82l-9.59-0.06
		C202.44,498.61,200.64,498.63,197.65,498.67z M206.31,492.66c1.54,0.08,3.07,0.11,4.57,0.11c1.71,0,3.3-0.08,4.75-0.25
		c1.46-0.17,2.71-0.44,3.77-0.8c1.05-0.37,2.11-1.01,3.18-1.93c1.06-0.92,1.93-1.99,2.61-3.2c0.68-1.21,1.19-2.56,1.55-4.05
		c0.36-1.49,0.54-3,0.54-4.54c0-2.82-0.48-5.14-1.44-6.96c-0.96-1.81-2.22-3.12-3.79-3.92c-1.57-0.8-3.99-1.2-7.27-1.2
		c-2.13,0-4.56,0.04-7.31,0.11L206.31,492.66z"/>
	<path d="M241.3,498.67c0.45-6.47,0.81-13.11,1.1-19.91c0.28-6.8,0.42-12,0.42-15.59l-0.03-3.02l4.72,0.06
		c0.26,0,1.7-0.02,4.32-0.06c-0.77,9.89-1.25,22.73-1.46,38.51l-4.15-0.06C245.52,498.61,243.88,498.63,241.3,498.67z"/>
	<path d="M280.43,476.66c2.6,0.04,5.08,0.06,7.45,0.06c3.1,0,5.69-0.02,7.76-0.06c-0.49,6.3-0.85,13.3-1.05,20.99
		c-3.12,0.62-5.94,1.06-8.46,1.31c-2.52,0.25-4.66,0.38-6.43,0.38c-3.31,0-6.38-0.35-9.21-1.04c-2.83-0.7-5.22-1.82-7.18-3.39
		c-1.96-1.56-3.45-3.62-4.47-6.16c-1.02-2.55-1.54-5.24-1.54-8.08c0-2.43,0.38-4.77,1.14-7.03c0.76-2.26,1.89-4.33,3.39-6.21
		c1.5-1.88,3.3-3.45,5.42-4.7c2.12-1.25,4.36-2.11,6.74-2.57c2.38-0.46,4.9-0.69,7.55-0.69c3.65,0,7.84,0.49,12.58,1.47
		c0.02,2.13,0.12,4.37,0.31,6.71c-4.44-1.49-8.46-2.23-12.05-2.23c-2.31,0-4.5,0.33-6.56,0.99s-3.84,1.68-5.33,3.06
		c-1.5,1.38-2.63,3.09-3.41,5.13c-0.78,2.04-1.17,4.15-1.17,6.33c0,2.43,0.45,4.59,1.34,6.5c0.89,1.91,2.39,3.39,4.5,4.44
		c2.11,1.05,4.52,1.58,7.25,1.58c1,0,2.17-0.09,3.53-0.27c1.35-0.18,2.76-0.48,4.23-0.92l0.46-9.9l-2.23-0.03
		c-1.26,0-2.86,0.03-4.8,0.08C280.35,479.93,280.43,478,280.43,476.66z"/>
	<path d="M302.33,498.67c0.45-6.47,0.81-13.11,1.1-19.91c0.28-6.8,0.42-12,0.42-15.59l-0.03-3.02l4.72,0.06
		c0.26,0,1.7-0.02,4.32-0.06c-0.77,9.89-1.25,22.73-1.46,38.51l-4.15-0.06C306.54,498.61,304.91,498.63,302.33,498.67z"/>
	<path d="M327.47,498.67l0.62-8.24l0.62-12.27l0.39-12.08h-1.97l-1.83,0.03l-1.75,0.03l-6.51,0.2c0.15-2.71,0.23-4.77,0.25-6.18
		c5.42,0.04,11.08,0.06,17.01,0.06l10.13-0.03l5.42-0.03c-0.19,2.68-0.28,4.74-0.28,6.18c-3.4-0.17-6.67-0.25-9.79-0.25h-2.17
		l-0.34,5.15l-0.81,19.83l-0.06,3.32c-0.02,1.37-0.03,2.8-0.03,4.28l-4.29-0.06C331.6,498.61,330.06,498.63,327.47,498.67z"/>
	<path d="M347.44,498.67c1.96-3.46,4.25-7.74,6.89-12.84l7.42-14.25c2.31-4.4,4.23-8.21,5.76-11.43c2.44,0.04,4.18,0.06,5.19,0.06
		c1.79,0,3.54-0.02,5.25-0.06l4.03,11.54l8.77,23.87l1.21,3.1l-4.23-0.06c-0.98,0-2.62,0.02-4.93,0.06
		c-0.45-1.67-1.16-3.93-2.13-6.77c-0.97-2.84-1.8-5.14-2.47-6.91h-14.85c-2.2,4.48-4.34,9.04-6.43,13.68l-4.6-0.06
		C351.46,498.61,349.83,498.63,347.44,498.67z M365.86,479.12h10.81l-4.44-13.06l-2.28,4.75L365.86,479.12z"/>
	<path d="M395.86,498.67c0.56-5.66,1.01-11.97,1.35-18.92c0.34-6.95,0.53-13.48,0.59-19.59c1.92,0.04,3.52,0.06,4.8,0.06
		c0.87,0,2.25-0.02,4.15-0.06c-0.25,3.39-0.48,7.24-0.69,11.57l-0.57,11.31c-0.17,3.24-0.3,6.45-0.37,9.65l4.86,0.06
		c4.56,0,7.55-0.01,8.98-0.04c1.43-0.03,2.84-0.08,4.24-0.16c-0.17,1.84-0.32,3.88-0.45,6.12c-4.95-0.04-9.18-0.06-12.7-0.06
		l-8.89,0.03L395.86,498.67z"/>
	<path d="M452.77,498.67c-4.61-12.94-9.4-25.78-14.37-38.51c1.8,0.04,3.27,0.06,4.4,0.06c1.24,0,2.71-0.02,4.4-0.06l7.9,23.34
		l3.3,9.19c0.71-1.39,1.79-3.62,3.23-6.69c1.44-3.07,2.47-5.34,3.09-6.81c-0.87-2.63-1.96-5.82-3.29-9.56s-2.49-6.9-3.48-9.47
		c1.6,0.04,3,0.06,4.2,0.06c1.33,0,2.74-0.02,4.2-0.06c0.89,3.4,1.87,6.77,2.95,10.1c1.57-3.4,3.01-6.77,4.32-10.1
		c1.64,0.04,2.96,0.06,3.95,0.06c1.15,0,2.47-0.02,3.95-0.06c-1.21,2.41-2.7,5.48-4.48,9.22c-1.78,3.74-3.21,6.86-4.31,9.36
		c0.42,1.36,1.19,3.65,2.33,6.89c1.13,3.24,1.97,5.53,2.5,6.86l7.57-16.14l5.49-12.08l1.8-4.12c1.81,0.04,3.26,0.06,4.35,0.06
		c1.21,0,2.67-0.02,4.38-0.06l-5.3,10.52l-11.08,22.74l-2.48,5.25c-2.01-0.04-3.73-0.06-5.16-0.06c-1.5,0-3.24,0.02-5.19,0.06
		c-1.11-3.79-2.34-7.52-3.68-11.18c-1.78,3.66-3.47,7.39-5.07,11.18c-2.01-0.04-3.75-0.06-5.22-0.06
		C456.45,498.61,454.71,498.63,452.77,498.67z"/>
	<path d="M497.26,498.67c1.96-3.46,4.25-7.74,6.89-12.84l7.42-14.25c2.31-4.4,4.23-8.21,5.76-11.43c2.45,0.04,4.18,0.06,5.19,0.06
		c1.79,0,3.54-0.02,5.25-0.06l4.03,11.54l8.77,23.87l1.21,3.1l-4.23-0.06c-0.98,0-2.62,0.02-4.93,0.06
		c-0.45-1.67-1.16-3.93-2.13-6.77c-0.97-2.84-1.8-5.14-2.47-6.91h-14.85c-2.2,4.48-4.34,9.04-6.43,13.68l-4.6-0.06
		C501.27,498.61,499.65,498.63,497.26,498.67z M515.67,479.12h10.81l-4.44-13.06l-2.28,4.75L515.67,479.12z"/>
	<path d="M545.81,498.67c0.57-5.6,0.99-12.05,1.28-19.33s0.43-13.67,0.43-19.19c2.26,0.04,4.15,0.06,5.67,0.06
		c1.64,0,3.24-0.03,4.81-0.08c1.57-0.06,3.23-0.08,4.98-0.08c2.18,0,4.13,0.12,5.85,0.37s3.25,0.81,4.58,1.69
		c1.33,0.88,2.33,1.96,2.98,3.22c0.65,1.26,0.97,2.73,0.97,4.4c0,1.05-0.12,2.05-0.37,3c-0.25,0.95-0.61,1.84-1.09,2.68
		c-0.48,0.84-1.05,1.57-1.71,2.2c-0.66,0.63-1.31,1.13-1.96,1.5c-0.65,0.37-1.39,0.68-2.21,0.95c-0.83,0.26-1.94,0.58-3.33,0.96
		l1.92,3.72c0.62,1.18,1.8,3.31,3.53,6.38l2.85,4.99c0.15,0.26,0.6,1.12,1.35,2.57c-2.3-0.04-3.82-0.06-4.55-0.06
		c-0.91,0-2.5,0.02-4.78,0.06l-3.13-7.5c-0.54-1.15-1.2-2.5-1.97-4.06l-3.41-6.86c-0.34-0.64-0.81-1.6-1.41-2.88
		c1.26,0.23,2.41,0.34,3.45,0.34c1.62,0,3.1-0.26,4.43-0.79c1.34-0.53,2.36-1.34,3.08-2.44c0.71-1.1,1.07-2.3,1.07-3.6
		c0-0.79-0.16-1.52-0.46-2.2c-0.31-0.68-0.83-1.25-1.57-1.72c-0.73-0.47-1.61-0.77-2.62-0.9s-2.03-0.2-3.05-0.2
		c-0.56,0-1.34,0.01-2.31,0.03c-0.98,0.02-2.18,0.03-3.61,0.03l-0.5,11.6l-0.53,21.16l-4.38-0.06
		C549.38,498.61,547.96,498.63,545.81,498.67z"/>
	<path d="M582.29,498.67l0.82-10.81l0.59-12.5l0.37-11.37v-3.84c4.65,0.04,9.49,0.06,14.53,0.06l5.42-0.03l8.15-0.03l-0.34,6.09
		l-2.68-0.14c-0.73-0.04-1.75-0.07-3.05-0.08c-1.3-0.02-2.62-0.03-3.98-0.03c-2.93,0-4.83,0-5.69,0.01
		c-0.86,0.01-2.15,0.04-3.88,0.1l-0.46,10.02c2.58,0.06,5.17,0.08,7.79,0.08c1.81,0,4.85-0.06,9.15-0.17
		c-0.15,1.71-0.28,3.76-0.4,6.15c-5.02-0.06-7.9-0.08-8.63-0.08c-2.22,0-4.98,0.06-8.29,0.17l-0.46,10.55l3.1,0.03
		c0.9,0,2.97-0.02,6.21-0.06l6.12-0.11l4.09-0.2c-0.19,2.18-0.32,4.24-0.39,6.18c-4.89-0.04-9.3-0.06-13.23-0.06l-9.28,0.03
		L582.29,498.67z"/>
	<path d="M617.67,498.67l0.66-10.13c0.36-5.53,0.62-10.66,0.77-15.39s0.23-8.03,0.23-9.89l-0.03-3.1c2.21,0.04,3.78,0.06,4.7,0.06
		c0.69,0,2.11-0.02,4.25-0.06l-0.75,12.72l-0.09,2.93h19.21l0.35-7.63c0.08-2.62,0.12-4.34,0.12-5.17v-2.85l4.72,0.06
		c0.41,0,1.83-0.02,4.24-0.06l-0.93,15.38l-0.4,11.4l-0.11,6.69c-0.04,2.75-0.05,4.43-0.05,5.05l-4.41-0.06
		c-0.55,0-2.11,0.02-4.69,0.06c0.49-5.32,0.8-10.92,0.94-16.79h-19.26l-0.4,10.38l-0.11,6.4l-4.63-0.06
		C621.49,498.61,620.05,498.63,617.67,498.67z"/>
	<path d="M684.37,459.48c2.8,0,5.49,0.39,8.07,1.16s4.86,2.03,6.86,3.77c1.99,1.74,3.5,3.77,4.51,6.08c1.02,2.31,1.52,5.01,1.52,8.1
		c0,2.9-0.48,5.67-1.44,8.31s-2.45,4.92-4.46,6.83s-4.46,3.32-7.35,4.25c-2.89,0.92-5.92,1.38-9.1,1.38c-3.01,0-5.9-0.42-8.68-1.27
		c-2.77-0.85-5.16-2.17-7.17-3.98c-2-1.81-3.44-3.88-4.3-6.22c-0.87-2.34-1.3-4.88-1.3-7.6c0-2.99,0.54-5.85,1.62-8.58
		c1.08-2.73,2.67-4.98,4.77-6.77c2.1-1.79,4.55-3.14,7.36-4.06C678.11,459.94,681.14,459.48,684.37,459.48z M683.92,465.49
		c-2.84,0-5.31,0.65-7.42,1.96c-2.11,1.31-3.69,3.09-4.75,5.36c-1.06,2.27-1.59,4.72-1.59,7.35c0,2.45,0.51,4.7,1.54,6.76
		s2.6,3.63,4.73,4.71c2.13,1.08,4.42,1.62,6.88,1.62c1.86,0,3.64-0.32,5.33-0.96c1.69-0.64,3.16-1.61,4.39-2.92
		c1.23-1.31,2.16-2.88,2.78-4.73c0.62-1.84,0.93-3.76,0.93-5.76c0-1.86-0.28-3.65-0.83-5.36c-0.56-1.71-1.42-3.18-2.58-4.42
		c-1.17-1.23-2.57-2.14-4.22-2.74C687.45,465.79,685.73,465.49,683.92,465.49z"/>
	<path d="M712.26,460.16c2.18,0.04,3.65,0.06,4.42,0.06c0.96,0,2.38-0.02,4.28-0.06l-1.33,22.77c-0.02,0.26-0.03,0.55-0.03,0.85
		c0,2.54,0.36,4.45,1.09,5.73c0.72,1.28,1.79,2.21,3.19,2.79c1.4,0.58,3.01,0.87,4.81,0.87c1.15,0,2.24-0.13,3.27-0.39
		c0.85-0.23,1.62-0.54,2.31-0.93c0.56-0.34,1.06-0.73,1.5-1.18c0.51-0.54,0.93-1.18,1.27-1.89c0.36-0.7,0.62-1.49,0.79-2.37
		c0.24-1.33,0.47-3.66,0.68-6.97l0.6-9.82c0.13-2.86,0.24-6.01,0.31-9.45c2.12,0.04,3.7,0.06,4.73,0.06l4.11-0.06l-0.87,13.6
		l-0.56,10.81c-0.17,2.52-0.43,4.4-0.79,5.64c-0.3,1.03-0.72,1.99-1.27,2.88c-0.53,0.79-1.16,1.5-1.89,2.12
		c-0.94,0.81-2.04,1.51-3.3,2.09c-1.41,0.66-2.91,1.14-4.49,1.44c-2.18,0.41-4.43,0.62-6.74,0.62c-2.37,0-4.59-0.22-6.66-0.65
		c-1.77-0.38-3.39-0.96-4.87-1.75s-2.65-1.67-3.51-2.65c-0.7-0.79-1.25-1.78-1.67-2.96c-0.47-1.32-0.71-2.78-0.71-4.4
		c0-0.56,0.02-1.29,0.06-2.19c0.04-0.89,0.1-2.04,0.2-3.46l0.26-3.98c0.09-1.24,0.2-3.07,0.31-5.47l0.29-6.12
		C712.14,464.04,712.2,462.19,712.26,460.16z"/>
	<path d="M753.1,497.85c-0.15-2.86-0.35-5.19-0.59-7c3.69,1.67,7.04,2.51,10.04,2.51c1.2,0,2.33-0.18,3.37-0.55
		c1.04-0.37,1.81-0.88,2.31-1.55c0.5-0.67,0.75-1.42,0.75-2.24c0-0.64-0.12-1.21-0.36-1.72c-0.36-0.7-0.96-1.42-1.8-2.17
		c-1.08-1.03-2.99-2.74-5.75-5.11c-1.32-1.15-2.22-1.96-2.72-2.45c-1.13-1.07-1.99-2.04-2.6-2.89c-0.6-0.86-1.04-1.71-1.3-2.55
		c-0.26-0.85-0.4-1.75-0.4-2.71c0-1.77,0.49-3.43,1.48-4.98s2.46-2.77,4.43-3.64c1.96-0.88,4.44-1.31,7.43-1.31
		c2.69,0,5.72,0.33,9.08,0.99c0.09,1.96,0.28,4.19,0.56,6.71c-2.93-1.13-5.63-1.69-8.11-1.69c-1.84,0-3.35,0.42-4.52,1.26
		c-1.17,0.84-1.76,1.81-1.76,2.92c0,0.3,0.04,0.62,0.12,0.95c0.08,0.33,0.21,0.65,0.37,0.96c0.16,0.31,0.46,0.71,0.88,1.21
		c0.42,0.5,1.03,1.08,1.84,1.75c0.81,0.67,1.5,1.21,2.07,1.62l3.48,3.16c0.88,0.73,1.67,1.45,2.37,2.14c0.7,0.7,1.29,1.36,1.79,2
		s0.89,1.25,1.17,1.83s0.49,1.18,0.63,1.79c0.14,0.61,0.21,1.26,0.21,1.93c0,1.58-0.37,3.07-1.1,4.47c-0.73,1.4-1.79,2.55-3.16,3.46
		c-1.37,0.9-2.88,1.53-4.51,1.88c-1.64,0.35-3.37,0.52-5.19,0.52c-1.2,0-2.61-0.1-4.2-0.31
		C757.82,498.83,755.71,498.43,753.1,497.85z"/>
	<path d="M783.68,498.67l0.82-10.81l0.59-12.5l0.37-11.37v-3.84c4.65,0.04,9.49,0.06,14.53,0.06l5.42-0.03l8.15-0.03l-0.34,6.09
		l-2.68-0.14c-0.73-0.04-1.75-0.07-3.05-0.08c-1.3-0.02-2.62-0.03-3.98-0.03c-2.93,0-4.83,0-5.69,0.01
		c-0.86,0.01-2.15,0.04-3.88,0.1l-0.46,10.02c2.58,0.06,5.17,0.08,7.79,0.08c1.81,0,4.85-0.06,9.15-0.17
		c-0.15,1.71-0.28,3.76-0.4,6.15c-5.02-0.06-7.9-0.08-8.63-0.08c-2.22,0-4.98,0.06-8.29,0.17l-0.46,10.55l3.1,0.03
		c0.9,0,2.97-0.02,6.21-0.06l6.12-0.11l4.09-0.2c-0.19,2.18-0.32,4.24-0.39,6.18c-4.89-0.04-9.3-0.06-13.23-0.06l-9.28,0.03
		L783.68,498.67z"/>
</g>
<g>
	<polygon class="st4" points="295.75,504.73 309.38,504.73 309.38,504.73 295.75,504.73 	"/>
</g>
<g>
</g>
<g>
</g>
<g>
</g>
<g>
</g>
<g>
</g>
</svg>
