<?xml version="1.0" encoding="utf-8"?>
<!-- Generator: Adobe Illustrator 24.0.0, SVG Export Plug-In . SVG Version: 6.00 Build 0)  -->
<svg version="1.1" id="Layer_1" xmlns="http://www.w3.org/2000/svg" xmlns:xlink="http://www.w3.org/1999/xlink" x="0px" y="0px"
	 viewBox="0 0 800 600" style="enable-background:new 0 0 800 600;" xml:space="preserve">
<style type="text/css">
	.st0{fill:#CCCCCC;}
	.st1{fill:none;}
	.st2{fill:#0000FF;}
	.st3{fill:#FFFF00;}
	.st4{stroke:#000000;stroke-width:12;stroke-linecap:round;stroke-miterlimit:10;}
	.st5{stroke:#000000;stroke-width:12;stroke-miterlimit:10;}
	.st6{fill:url(#SVGID_1_);stroke:#000000;stroke-width:12;stroke-miterlimit:10;}
</style>
<g>
	<path class="st0" d="M412.69,286.72c0,11.83-4.11,24.34-12.31,37.53c-10.86,17.39-26.63,30.87-47.32,40.44
		c-19.07,8.79-39.56,13.19-61.48,13.19h-32l35.1-99.49h35.01l-29.77,83.97c12.73,0,25.36-3.91,37.87-11.73
		c12.51-7.82,21.64-17.49,27.39-28.99c5.17-10.15,7.76-18.62,7.76-25.41c0-11.12-3.1-19.1-9.31-23.95c-5.56-4.27-14.09-6.4-25.6-6.4
		h-93.77l14.93-24.44h93.86c16.22,0,29.74,3.43,40.53,10.28C406.33,259.79,412.69,271.46,412.69,286.72z"/>
	<path class="st0" d="M640.67,241.43l-68.65,124.12c-4.59,8.21-11.6,12.31-21.04,12.31h-12.12v-86.2l-47.71,74.28
		c-5.11,7.95-12.64,11.93-22.59,11.93h-13.77l10.18-112h-45.09l14.93-24.44h42.86c5.24,0,9.73,1.2,13.48,3.59
		c5.04,3.3,7.56,8.44,7.56,15.42c0,1.03-0.06,2.1-0.19,3.2l-6.98,65.74l46.25-73.41c3.3-5.24,6.24-8.79,8.82-10.67
		c3.62-2.58,8.57-3.88,14.84-3.88h9.5v86.01l46.54-86.01H640.67z"/>
</g>
<g>
	<rect x="465.77" y="479.1" class="st1" width="3.67" height="12.22"/>
</g>
<g>
	<path class="st2" d="M405.29,281.83c0,11.83-4.11,24.34-12.31,37.53c-10.86,17.39-26.63,30.87-47.32,40.44
		c-19.07,8.79-39.56,13.19-61.48,13.19h-32l35.1-99.49h35.01l-29.77,83.97c12.73,0,25.36-3.91,37.87-11.73
		c12.51-7.82,21.64-17.49,27.39-28.99c5.17-10.15,7.76-18.62,7.76-25.41c0-11.12-3.1-19.1-9.31-23.95c-5.56-4.27-14.09-6.4-25.6-6.4
		h-93.77l14.93-24.44h93.86c16.23,0,29.74,3.43,40.53,10.28C398.92,254.9,405.29,266.57,405.29,281.83z"/>
	<path class="st3" d="M633.26,236.54l-68.65,124.12c-4.59,8.21-11.6,12.31-21.04,12.31h-12.12v-86.2l-47.71,74.28
		c-5.11,7.95-12.64,11.93-22.59,11.93h-13.77l10.18-112h-45.09l14.93-24.44h42.86c5.24,0,9.73,1.2,13.48,3.59
		c5.04,3.3,7.56,8.44,7.56,15.42c0,1.03-0.06,2.1-0.19,3.2l-6.98,65.74l46.25-73.41c3.3-5.24,6.24-8.79,8.82-10.67
		c3.62-2.58,8.57-3.88,14.84-3.88h9.5v86.01l46.54-86.01H633.26z"/>
</g>
<line class="st4" x1="469.44" y1="217.43" x2="306.06" y2="123.1"/>
<line class="st4" x1="140.19" y1="218.37" x2="303.56" y2="124.04"/>
<line class="st5" x1="214.76" y1="406.77" x2="214.76" y2="235.69"/>
<linearGradient id="SVGID_1_" gradientUnits="userSpaceOnUse" x1="209.1172" y1="406.7651" x2="393.8609" y2="406.7651">
	<stop  offset="0" style="stop-color:#0000FF"/>
	<stop  offset="1" style="stop-color:#3DDEED;stop-opacity:0"/>
</linearGradient>
<line class="st6" x1="209.12" y1="406.77" x2="393.86" y2="406.77"/>
<g>
	<path d="M409.98,410.04l0.19-2.49l0.14-3.12l0.09-3.1c0-0.13,0.01-0.49,0.01-1.07c0.53,0.01,1.03,0.01,1.5,0.01
		c0.35,0,0.81-0.01,1.38-0.02c0.57-0.01,1.06-0.02,1.48-0.02c0.56,0,1.08,0.03,1.56,0.1c0.48,0.07,0.9,0.19,1.26,0.38
		c0.36,0.18,0.67,0.41,0.93,0.69c0.26,0.28,0.48,0.58,0.64,0.92s0.29,0.71,0.38,1.12c0.09,0.41,0.13,0.83,0.13,1.26
		c0,0.82-0.14,1.6-0.43,2.34s-0.71,1.36-1.27,1.84c-0.56,0.48-1.19,0.8-1.87,0.93c-0.68,0.14-1.46,0.21-2.33,0.21l-2.43-0.01
		C411.19,410.03,410.74,410.03,409.98,410.04z M412.17,408.52c0.39,0.02,0.78,0.03,1.16,0.03c0.43,0,0.84-0.02,1.21-0.06
		s0.69-0.11,0.96-0.2c0.27-0.09,0.54-0.26,0.81-0.49c0.27-0.23,0.49-0.5,0.66-0.81c0.17-0.31,0.3-0.65,0.39-1.03
		s0.14-0.76,0.14-1.15c0-0.72-0.12-1.3-0.37-1.76c-0.24-0.46-0.56-0.79-0.96-1c-0.4-0.2-1.01-0.3-1.84-0.3
		c-0.54,0-1.16,0.01-1.85,0.03L412.17,408.52z"/>
	<path d="M421.05,410.04c0.11-1.64,0.21-3.33,0.28-5.05s0.11-3.04,0.11-3.96l-0.01-0.77l1.2,0.01c0.07,0,0.43,0,1.1-0.01
		c-0.2,2.51-0.32,5.77-0.37,9.77l-1.05-0.01C422.12,410.03,421.71,410.03,421.05,410.04z"/>
	<path d="M430.99,404.46c0.66,0.01,1.29,0.01,1.89,0.01c0.79,0,1.44,0,1.97-0.01c-0.13,1.6-0.21,3.38-0.27,5.33
		c-0.79,0.16-1.51,0.27-2.15,0.33s-1.18,0.1-1.63,0.1c-0.84,0-1.62-0.09-2.34-0.26c-0.72-0.18-1.33-0.46-1.82-0.86
		c-0.5-0.4-0.87-0.92-1.13-1.56c-0.26-0.65-0.39-1.33-0.39-2.05c0-0.62,0.1-1.21,0.29-1.78c0.19-0.57,0.48-1.1,0.86-1.58
		s0.84-0.88,1.38-1.19s1.11-0.53,1.71-0.65s1.24-0.18,1.92-0.18c0.93,0,1.99,0.12,3.19,0.37c0,0.54,0.03,1.11,0.08,1.7
		c-1.13-0.38-2.15-0.57-3.06-0.57c-0.59,0-1.14,0.08-1.67,0.25c-0.52,0.17-0.97,0.43-1.35,0.78c-0.38,0.35-0.67,0.79-0.87,1.3
		c-0.2,0.52-0.3,1.05-0.3,1.61c0,0.62,0.11,1.17,0.34,1.65c0.23,0.48,0.61,0.86,1.14,1.13c0.53,0.27,1.15,0.4,1.84,0.4
		c0.25,0,0.55-0.02,0.9-0.07c0.34-0.04,0.7-0.12,1.07-0.23l0.12-2.51l-0.57-0.01c-0.32,0-0.73,0.01-1.22,0.02
		C430.96,405.28,430.99,404.79,430.99,404.46z"/>
	<path d="M436.54,410.04c0.11-1.64,0.21-3.33,0.28-5.05s0.11-3.04,0.11-3.96l-0.01-0.77l1.2,0.01c0.07,0,0.43,0,1.1-0.01
		c-0.2,2.51-0.32,5.77-0.37,9.77l-1.05-0.01C437.61,410.03,437.2,410.03,436.54,410.04z"/>
	<path d="M442.92,410.04l0.16-2.09l0.16-3.11l0.1-3.06h-0.5l-0.46,0.01l-0.44,0.01l-1.65,0.05c0.04-0.69,0.06-1.21,0.06-1.57
		c1.37,0.01,2.81,0.01,4.32,0.01l2.57-0.01l1.37-0.01c-0.05,0.68-0.07,1.2-0.07,1.57c-0.86-0.04-1.69-0.06-2.48-0.06h-0.55
		l-0.08,1.31l-0.21,5.03l-0.01,0.84c0,0.35-0.01,0.71-0.01,1.09l-1.09-0.01C443.97,410.03,443.58,410.03,442.92,410.04z"/>
	<path d="M447.99,410.04c0.5-0.88,1.08-1.96,1.75-3.26l1.88-3.62c0.59-1.12,1.08-2.08,1.46-2.9c0.62,0.01,1.06,0.01,1.32,0.01
		c0.45,0,0.9,0,1.33-0.01l1.02,2.93l2.23,6.06l0.31,0.79l-1.07-0.01c-0.25,0-0.67,0-1.25,0.01c-0.11-0.42-0.29-1-0.54-1.72
		c-0.25-0.72-0.46-1.3-0.63-1.75h-3.77c-0.56,1.14-1.1,2.29-1.63,3.47l-1.17-0.01C449.01,410.03,448.6,410.03,447.99,410.04z
		 M452.66,405.08h2.74l-1.13-3.31l-0.58,1.21L452.66,405.08z"/>
	<path d="M460.28,410.04c0.14-1.44,0.26-3.04,0.34-4.8c0.08-1.76,0.13-3.42,0.15-4.97c0.49,0.01,0.89,0.01,1.22,0.01
		c0.22,0,0.57,0,1.05-0.01c-0.06,0.86-0.12,1.84-0.17,2.94l-0.15,2.87c-0.04,0.82-0.08,1.64-0.09,2.45l1.23,0.01
		c1.16,0,1.92,0,2.28-0.01c0.36-0.01,0.72-0.02,1.08-0.04c-0.04,0.47-0.08,0.99-0.11,1.55c-1.26-0.01-2.33-0.01-3.22-0.01
		l-2.26,0.01L460.28,410.04z"/>
	<path d="M474.72,410.04c-1.17-3.28-2.39-6.54-3.65-9.77c0.46,0.01,0.83,0.01,1.12,0.01c0.31,0,0.69,0,1.12-0.01l2.01,5.92
		l0.84,2.33c0.18-0.35,0.45-0.92,0.82-1.7c0.37-0.78,0.63-1.36,0.79-1.73c-0.22-0.67-0.5-1.48-0.83-2.43
		c-0.34-0.95-0.63-1.75-0.88-2.4c0.41,0.01,0.76,0.01,1.07,0.01c0.34,0,0.69,0,1.07-0.01c0.23,0.86,0.47,1.72,0.75,2.56
		c0.4-0.86,0.76-1.72,1.1-2.56c0.42,0.01,0.75,0.01,1,0.01c0.29,0,0.63,0,1-0.01c-0.31,0.61-0.68,1.39-1.14,2.34
		c-0.45,0.95-0.82,1.74-1.09,2.38c0.11,0.34,0.3,0.93,0.59,1.75c0.29,0.82,0.5,1.4,0.63,1.74l1.92-4.1l1.39-3.06l0.46-1.05
		c0.46,0.01,0.83,0.01,1.1,0.01c0.31,0,0.68,0,1.11-0.01l-1.34,2.67l-2.81,5.77l-0.63,1.33c-0.51-0.01-0.95-0.01-1.31-0.01
		c-0.38,0-0.82,0-1.32,0.01c-0.28-0.96-0.59-1.91-0.93-2.84c-0.45,0.93-0.88,1.88-1.29,2.84c-0.51-0.01-0.95-0.01-1.33-0.01
		C475.65,410.03,475.21,410.03,474.72,410.04z"/>
	<path d="M486.01,410.04c0.5-0.88,1.08-1.96,1.75-3.26l1.88-3.62c0.59-1.12,1.08-2.08,1.46-2.9c0.62,0.01,1.06,0.01,1.32,0.01
		c0.45,0,0.9,0,1.33-0.01l1.02,2.93l2.23,6.06l0.31,0.79l-1.07-0.01c-0.25,0-0.67,0-1.25,0.01c-0.11-0.42-0.29-1-0.54-1.72
		c-0.25-0.72-0.46-1.3-0.63-1.75h-3.77c-0.56,1.14-1.1,2.29-1.63,3.47l-1.17-0.01C487.03,410.03,486.62,410.03,486.01,410.04z
		 M490.68,405.08h2.74l-1.13-3.31l-0.58,1.21L490.68,405.08z"/>
	<path d="M498.33,410.04c0.14-1.42,0.25-3.06,0.32-4.9c0.07-1.85,0.11-3.47,0.11-4.87c0.57,0.01,1.05,0.01,1.44,0.01
		c0.42,0,0.82-0.01,1.22-0.02c0.4-0.01,0.82-0.02,1.26-0.02c0.55,0,1.05,0.03,1.49,0.09c0.44,0.06,0.82,0.21,1.16,0.43
		s0.59,0.5,0.75,0.82c0.17,0.32,0.25,0.69,0.25,1.12c0,0.27-0.03,0.52-0.09,0.76c-0.06,0.24-0.15,0.47-0.28,0.68
		c-0.12,0.21-0.27,0.4-0.43,0.56s-0.33,0.29-0.5,0.38c-0.17,0.09-0.35,0.17-0.56,0.24c-0.21,0.07-0.49,0.15-0.84,0.24l0.49,0.95
		c0.16,0.3,0.46,0.84,0.89,1.62l0.72,1.27c0.04,0.07,0.15,0.28,0.34,0.65c-0.58-0.01-0.97-0.01-1.16-0.01c-0.23,0-0.63,0-1.21,0.01
		l-0.79-1.9c-0.14-0.29-0.31-0.63-0.5-1.03l-0.86-1.74c-0.09-0.16-0.21-0.41-0.36-0.73c0.32,0.06,0.61,0.09,0.87,0.09
		c0.41,0,0.79-0.07,1.13-0.2c0.34-0.13,0.6-0.34,0.78-0.62c0.18-0.28,0.27-0.58,0.27-0.91c0-0.2-0.04-0.39-0.12-0.56
		c-0.08-0.17-0.21-0.32-0.4-0.44c-0.19-0.12-0.41-0.2-0.67-0.23c-0.26-0.03-0.52-0.05-0.77-0.05c-0.14,0-0.34,0-0.59,0.01
		c-0.25,0-0.55,0.01-0.92,0.01l-0.13,2.94l-0.13,5.37l-1.11-0.01C499.24,410.03,498.88,410.03,498.33,410.04z"/>
	<path d="M507.59,410.04l0.21-2.74l0.15-3.17l0.09-2.89v-0.97c1.18,0.01,2.41,0.01,3.69,0.01l1.38-0.01l2.07-0.01l-0.09,1.55
		l-0.68-0.04c-0.19-0.01-0.44-0.02-0.77-0.02s-0.67-0.01-1.01-0.01c-0.74,0-1.23,0-1.44,0c-0.22,0-0.55,0.01-0.98,0.03l-0.12,2.54
		c0.65,0.01,1.31,0.02,1.98,0.02c0.46,0,1.23-0.01,2.32-0.04c-0.04,0.43-0.07,0.96-0.1,1.56c-1.27-0.01-2-0.02-2.19-0.02
		c-0.56,0-1.26,0.01-2.11,0.04l-0.12,2.68l0.79,0.01c0.23,0,0.75,0,1.58-0.01l1.55-0.03l1.04-0.05c-0.05,0.55-0.08,1.08-0.1,1.57
		c-1.24-0.01-2.36-0.01-3.36-0.01l-2.36,0.01L507.59,410.04z"/>
	<path d="M516.57,410.04l0.17-2.57c0.09-1.4,0.16-2.71,0.2-3.91c0.04-1.2,0.06-2.04,0.06-2.51l-0.01-0.79
		c0.56,0.01,0.96,0.01,1.19,0.01c0.18,0,0.54,0,1.08-0.01l-0.19,3.23l-0.02,0.74h4.87l0.09-1.94c0.02-0.66,0.03-1.1,0.03-1.31v-0.72
		l1.2,0.01c0.11,0,0.46,0,1.08-0.01l-0.24,3.9l-0.1,2.89l-0.03,1.7c-0.01,0.7-0.01,1.12-0.01,1.28l-1.12-0.01
		c-0.14,0-0.54,0-1.19,0.01c0.12-1.35,0.2-2.77,0.24-4.26h-4.89l-0.1,2.63l-0.03,1.63l-1.18-0.01
		C517.54,410.03,517.17,410.03,516.57,410.04z"/>
	<path d="M533.5,400.1c0.71,0,1.39,0.1,2.05,0.29c0.65,0.2,1.23,0.51,1.74,0.96s0.89,0.96,1.15,1.54c0.26,0.59,0.39,1.27,0.39,2.05
		c0,0.74-0.12,1.44-0.37,2.11s-0.62,1.25-1.13,1.73s-1.13,0.84-1.87,1.08c-0.73,0.23-1.5,0.35-2.31,0.35c-0.76,0-1.5-0.11-2.2-0.32
		s-1.31-0.55-1.82-1.01c-0.51-0.46-0.87-0.98-1.09-1.58c-0.22-0.59-0.33-1.24-0.33-1.93c0-0.76,0.14-1.48,0.41-2.18
		s0.68-1.26,1.21-1.72c0.53-0.45,1.16-0.8,1.87-1.03C531.91,400.21,532.67,400.1,533.5,400.1z M533.38,401.62
		c-0.72,0-1.35,0.17-1.88,0.5c-0.53,0.33-0.94,0.79-1.21,1.36c-0.27,0.58-0.41,1.2-0.41,1.87c0,0.62,0.13,1.19,0.39,1.71
		c0.26,0.52,0.66,0.92,1.2,1.2s1.12,0.41,1.75,0.41c0.47,0,0.92-0.08,1.35-0.24s0.8-0.41,1.11-0.74c0.31-0.33,0.55-0.73,0.71-1.2
		s0.24-0.95,0.24-1.46c0-0.47-0.07-0.93-0.21-1.36c-0.14-0.43-0.36-0.81-0.66-1.12s-0.65-0.54-1.07-0.69
		C534.28,401.7,533.84,401.62,533.38,401.62z"/>
	<path d="M540.57,400.27c0.55,0.01,0.93,0.01,1.12,0.01c0.24,0,0.61,0,1.09-0.01l-0.34,5.78c0,0.07-0.01,0.14-0.01,0.21
		c0,0.64,0.09,1.13,0.28,1.45c0.18,0.33,0.45,0.56,0.81,0.71c0.36,0.15,0.76,0.22,1.22,0.22c0.29,0,0.57-0.03,0.83-0.1
		c0.21-0.06,0.41-0.14,0.59-0.24c0.14-0.09,0.27-0.19,0.38-0.3c0.13-0.14,0.24-0.3,0.32-0.48c0.09-0.18,0.16-0.38,0.2-0.6
		c0.06-0.34,0.12-0.93,0.17-1.77l0.15-2.49c0.03-0.73,0.06-1.52,0.08-2.4c0.54,0.01,0.94,0.01,1.2,0.01l1.04-0.01l-0.22,3.45
		l-0.14,2.74c-0.04,0.64-0.11,1.12-0.2,1.43c-0.08,0.26-0.18,0.51-0.32,0.73c-0.13,0.2-0.29,0.38-0.48,0.54
		c-0.24,0.21-0.52,0.38-0.84,0.53c-0.36,0.17-0.74,0.29-1.14,0.37c-0.55,0.1-1.12,0.16-1.71,0.16c-0.6,0-1.17-0.05-1.69-0.17
		c-0.45-0.09-0.86-0.24-1.24-0.44c-0.38-0.2-0.67-0.42-0.89-0.67c-0.18-0.2-0.32-0.45-0.42-0.75c-0.12-0.33-0.18-0.71-0.18-1.12
		c0-0.14,0-0.33,0.01-0.55s0.03-0.52,0.05-0.88l0.06-1.01c0.02-0.32,0.05-0.78,0.08-1.39l0.07-1.55
		C540.54,401.25,540.56,400.78,540.57,400.27z"/>
	<path d="M550.94,409.83c-0.04-0.73-0.09-1.32-0.15-1.78c0.94,0.42,1.79,0.64,2.55,0.64c0.3,0,0.59-0.05,0.86-0.14
		c0.26-0.09,0.46-0.22,0.59-0.39c0.13-0.17,0.19-0.36,0.19-0.57c0-0.16-0.03-0.31-0.09-0.44c-0.09-0.18-0.24-0.36-0.46-0.55
		c-0.27-0.26-0.76-0.69-1.46-1.3c-0.33-0.29-0.56-0.5-0.69-0.62c-0.29-0.27-0.51-0.52-0.66-0.73c-0.15-0.22-0.26-0.43-0.33-0.65
		c-0.07-0.21-0.1-0.44-0.1-0.69c0-0.45,0.13-0.87,0.38-1.26c0.25-0.39,0.63-0.7,1.12-0.92s1.13-0.33,1.89-0.33
		c0.68,0,1.45,0.08,2.31,0.25c0.02,0.5,0.07,1.06,0.14,1.7c-0.74-0.29-1.43-0.43-2.06-0.43c-0.47,0-0.85,0.11-1.15,0.32
		c-0.3,0.21-0.45,0.46-0.45,0.74c0,0.08,0.01,0.16,0.03,0.24c0.02,0.08,0.05,0.16,0.09,0.24c0.04,0.08,0.12,0.18,0.22,0.31
		c0.11,0.13,0.26,0.27,0.47,0.44c0.21,0.17,0.38,0.31,0.53,0.41l0.88,0.8c0.22,0.19,0.42,0.37,0.6,0.54
		c0.18,0.18,0.33,0.35,0.45,0.51s0.23,0.32,0.3,0.47c0.07,0.15,0.13,0.3,0.16,0.45c0.04,0.16,0.05,0.32,0.05,0.49
		c0,0.4-0.09,0.78-0.28,1.13c-0.19,0.36-0.45,0.65-0.8,0.88c-0.35,0.23-0.73,0.39-1.15,0.48c-0.42,0.09-0.85,0.13-1.32,0.13
		c-0.31,0-0.66-0.03-1.07-0.08C552.13,410.08,551.6,409.98,550.94,409.83z"/>
	<path d="M558.7,410.04l0.21-2.74l0.15-3.17l0.09-2.89v-0.97c1.18,0.01,2.41,0.01,3.69,0.01l1.38-0.01l2.07-0.01l-0.09,1.55
		l-0.68-0.04c-0.19-0.01-0.44-0.02-0.77-0.02s-0.67-0.01-1.01-0.01c-0.74,0-1.23,0-1.44,0c-0.22,0-0.55,0.01-0.98,0.03l-0.12,2.54
		c0.65,0.01,1.31,0.02,1.98,0.02c0.46,0,1.23-0.01,2.32-0.04c-0.04,0.43-0.07,0.96-0.1,1.56c-1.27-0.01-2-0.02-2.19-0.02
		c-0.56,0-1.26,0.01-2.11,0.04l-0.12,2.68l0.79,0.01c0.23,0,0.75,0,1.58-0.01l1.55-0.03l1.04-0.05c-0.05,0.55-0.08,1.08-0.1,1.57
		c-1.24-0.01-2.36-0.01-3.36-0.01l-2.36,0.01L558.7,410.04z"/>
</g>
<g>
</g>
<g>
</g>
<g>
</g>
<g>
</g>
<g>
</g>
</svg>
